<svg width="170" height="171" viewBox="0 0 170 171" fill="none" xmlns="http://www.w3.org/2000/svg">
<g filter="url(#filter0_ddd_23840_65436)">
<rect x="5" y="4" width="160" height="160" rx="80" fill="white"/>
<path d="M85.0002 136.416C115.928 136.416 141 111.344 141 80.4167C141 49.4889 115.928 24.417 85.0002 24.417C54.0724 24.417 29.0005 49.4889 29.0005 80.4167C29.0005 111.344 54.0724 136.416 85.0002 136.416Z" fill="#EBEBEB"/>
<path d="M134.046 90.4057C133.793 90.964 133.331 91.4002 132.758 91.6195C132.186 91.8387 131.55 91.8234 130.989 91.5769C130.428 91.3303 129.987 90.8724 129.762 90.3026C129.536 89.7327 129.544 89.0969 129.785 88.5331C130.97 85.8333 130.855 82.6256 129.586 79.947C129.222 79.1756 128.762 78.4538 128.215 77.7994C127.115 76.4833 124.717 74.4097 121.05 75.2963C115.107 76.7309 115.046 81.8618 117.849 95.5895C118.803 100.263 118.175 103.905 115.983 106.416C114.091 108.581 111.521 109.277 109.82 109.495C108.81 109.622 108.108 109.58 108.034 109.575C107.428 109.523 106.867 109.235 106.471 108.775C106.074 108.314 105.874 107.716 105.912 107.11C105.951 106.503 106.225 105.935 106.676 105.528C107.128 105.121 107.72 104.907 108.328 104.931C108.41 104.935 111.036 105.028 112.496 103.331C113.127 102.595 113.444 101.626 113.562 100.587C113.719 99.2288 113.539 97.7498 113.287 96.5205C112.039 90.4099 111.047 84.9975 111.523 80.6431C112.107 75.3026 114.946 71.9829 119.959 70.7705C124.423 69.6914 128.733 71.1661 131.784 74.8118C132.072 75.1568 132.344 75.5137 132.599 75.8824C135.487 80.0845 136.088 85.7571 134.046 90.4057Z" fill="white"/>
<path d="M134.046 90.4056C133.793 90.964 133.33 91.4001 132.758 91.6194C132.186 91.8387 131.55 91.8234 130.989 91.5768C130.428 91.3303 129.987 90.8724 129.761 90.3025C129.536 89.7326 129.544 89.0968 129.784 88.5331C130.969 85.8332 130.855 82.6256 129.585 79.9469C131.039 78.9271 132.287 77.5814 132.598 75.8823C135.487 80.0844 136.087 85.7571 134.046 90.4056Z" fill="#FFBC1F"/>
<g opacity="0.3">
<path d="M130.049 90.8582C129.802 90.5289 129.648 90.1399 129.602 89.7313C129.555 89.3227 129.618 88.9091 129.784 88.5329C130.969 85.833 130.855 82.6254 129.585 79.9467C129.222 79.1753 128.761 78.4536 128.214 77.7991C127.114 76.483 124.717 74.4095 121.05 75.296C115.107 76.7306 115.045 81.8616 117.849 95.5893C118.803 100.263 118.175 103.905 115.983 106.416C114.091 108.581 111.52 109.277 109.819 109.495C108.81 109.622 108.107 109.579 108.033 109.575C107.428 109.523 106.867 109.235 106.47 108.774C106.074 108.314 105.873 107.716 105.912 107.109C105.95 106.503 106.225 105.935 106.676 105.528C107.127 105.121 107.72 104.907 108.327 104.931C108.41 104.935 111.036 105.028 112.496 103.331C113.126 102.595 113.443 101.626 113.562 100.587C113.782 100.617 113.998 100.672 114.206 100.749C115.206 101.13 116.276 100.385 116.237 99.3166C116.214 98.6594 116.124 97.8431 115.934 96.8292C115.029 91.9775 109.415 74.7777 121.647 73.3431C132.353 72.0884 136.087 86.4255 130.049 90.8582Z" fill="#363636"/>
</g>
<path d="M108.42 110.433C108.166 110.433 108.01 110.422 107.974 110.42C107.141 110.358 106.366 109.969 105.817 109.339C105.268 108.709 104.99 107.888 105.043 107.054C105.096 106.22 105.475 105.441 106.099 104.885C106.723 104.329 107.541 104.042 108.376 104.085C108.387 104.085 110.664 104.162 111.853 102.779C112.816 101.659 113.031 99.4965 112.458 96.6909C111.195 90.5084 110.19 85.027 110.68 80.5507C111.308 74.8188 114.362 71.2515 119.758 69.9481C124.546 68.7911 129.166 70.3658 132.433 74.2687C136.209 78.7801 137.168 85.4015 134.82 90.7453C134.655 91.1298 134.415 91.4776 134.114 91.7688C133.813 92.06 133.458 92.2889 133.068 92.4421C132.678 92.5954 132.262 92.6701 131.844 92.6619C131.425 92.6536 131.012 92.5627 130.629 92.3942C130.246 92.2258 129.9 91.9832 129.611 91.6804C129.321 91.3776 129.095 91.0206 128.945 90.63C128.794 90.2393 128.722 89.8227 128.733 89.4042C128.745 88.9857 128.838 88.5736 129.009 88.1915C130.41 85.0054 129.83 81.0475 127.566 78.3426C126.592 77.178 124.474 75.3381 121.249 76.1184C116.318 77.3092 115.79 81.2781 118.677 95.421C119.687 100.366 118.994 104.252 116.619 106.974C114.579 109.307 111.853 110.088 109.924 110.335C109.425 110.399 108.923 110.431 108.42 110.433ZM108.197 105.773C107.813 105.773 107.444 105.921 107.168 106.188C106.891 106.454 106.729 106.817 106.715 107.2C106.701 107.584 106.837 107.958 107.093 108.243C107.349 108.529 107.706 108.704 108.089 108.731C108.098 108.731 108.756 108.774 109.711 108.654C111.348 108.446 113.655 107.792 115.344 105.859C117.354 103.557 117.917 100.16 117.018 95.7595C115.685 89.227 114.887 84.1705 115.33 80.725C115.78 77.2127 117.483 75.2864 120.851 74.4731C124.965 73.4791 127.637 75.7904 128.863 77.2563C131.529 80.4428 132.212 85.1112 130.559 88.8724C130.481 89.0504 130.438 89.2422 130.434 89.4366C130.43 89.6311 130.464 89.8245 130.535 90.0057C130.605 90.187 130.711 90.3526 130.845 90.4931C130.98 90.6336 131.141 90.7462 131.319 90.8245C131.678 90.9826 132.086 90.9914 132.452 90.849C132.818 90.7065 133.113 90.4245 133.271 90.0649C135.366 85.2966 134.508 79.3857 131.135 75.3558C128.297 71.9649 124.295 70.5943 120.156 71.5942C115.462 72.7283 112.913 75.7185 112.364 80.7348C111.898 84.9665 112.883 90.312 114.116 96.3519C114.597 98.7077 114.818 101.927 113.136 103.884C111.404 105.899 108.413 105.784 108.286 105.777C108.256 105.774 108.226 105.773 108.197 105.773Z" fill="#363636"/>
<path d="M113.942 106.448C113.495 109.569 111.087 112.584 111.087 112.584H59.6953C57.1901 110.773 54.905 107.874 54.7019 105.077V105.075C54.6067 103.776 54.9621 102.498 55.9545 101.361C59.086 97.7792 63.6181 101.679 63.6181 101.679C57.9476 90.8434 68.4465 77.3759 68.4465 77.3759C68.4489 77.3733 68.451 77.3704 68.4529 77.3674C74.8851 69.9852 96.6552 67.078 99.2746 70.3385C99.4157 70.509 99.5033 70.7173 99.5264 70.9373C99.7676 73.396 101.124 76.811 102.199 79.204C102.905 80.7761 103.828 82.2339 104.903 83.5775C107.4 86.7005 108.739 90.0668 109.446 92.974C109.918 94.8995 110.173 96.8718 110.207 98.854C110.226 99.9585 110.159 100.612 110.159 100.612C113.557 101.871 114.263 104.186 113.942 106.448Z" fill="white"/>
<path d="M61.6659 110.052C62.8179 110.052 63.7517 109.118 63.7517 107.966C63.7517 106.814 62.8179 105.88 61.6659 105.88C60.5139 105.88 59.5801 106.814 59.5801 107.966C59.5801 109.118 60.5139 110.052 61.6659 110.052Z" fill="#FF5253"/>
<path d="M107.826 110.681C108.89 110.24 109.395 109.02 108.955 107.956C108.514 106.891 107.294 106.386 106.229 106.827C105.165 107.268 104.66 108.488 105.1 109.552C105.541 110.616 106.761 111.122 107.826 110.681Z" fill="#FF5253"/>
<path d="M57.8958 107.666C58.4749 107.666 58.9444 107.197 58.9444 106.617C58.9444 106.038 58.4749 105.569 57.8958 105.569C57.3167 105.569 56.8472 106.038 56.8472 106.617C56.8472 107.197 57.3167 107.666 57.8958 107.666Z" fill="#FF5253"/>
<path d="M59.1546 105.229C59.7337 105.229 60.2032 104.759 60.2032 104.18C60.2032 103.601 59.7337 103.131 59.1546 103.131C58.5754 103.131 58.106 103.601 58.106 104.18C58.106 104.759 58.5754 105.229 59.1546 105.229Z" fill="#FF5253"/>
<path d="M61.9949 105.15C62.574 105.15 63.0435 104.68 63.0435 104.101C63.0435 103.522 62.574 103.053 61.9949 103.053C61.4158 103.053 60.9463 103.522 60.9463 104.101C60.9463 104.68 61.4158 105.15 61.9949 105.15Z" fill="#FF5253"/>
<path d="M106.902 105.48C107.504 105.231 107.791 104.54 107.541 103.937C107.291 103.335 106.601 103.048 105.998 103.298C105.395 103.548 105.109 104.239 105.359 104.841C105.608 105.444 106.299 105.73 106.902 105.48Z" fill="#FF5253"/>
<path d="M111.902 107.76C112.052 107.125 111.659 106.489 111.024 106.34C110.389 106.19 109.753 106.583 109.603 107.218C109.453 107.853 109.847 108.489 110.482 108.638C111.116 108.788 111.752 108.395 111.902 107.76Z" fill="#FF5253"/>
<path d="M110.79 104.655C110.94 104.02 110.547 103.384 109.912 103.234C109.277 103.084 108.641 103.477 108.492 104.112C108.342 104.747 108.735 105.383 109.37 105.533C110.005 105.683 110.641 105.29 110.79 104.655Z" fill="#FF5253"/>
<path d="M109.443 92.9763C108.441 93.2278 107.412 93.3543 106.379 93.3529C99.4179 93.3529 93.7749 87.7099 93.7749 80.7487C93.7731 78.6972 94.2731 76.6764 95.2312 74.8623C96.1893 73.0482 97.5765 71.496 99.2719 70.3408C99.413 70.5113 99.5006 70.7196 99.5237 70.9396C99.7649 73.3982 101.121 76.8132 102.196 79.2063C102.903 80.7784 103.825 82.2362 104.9 83.5798C107.397 86.7028 108.736 90.0691 109.443 92.9763Z" fill="#FFBC1F"/>
<g opacity="0.3">
<path d="M110.156 100.614C105.872 94.8337 99.5242 97.4193 99.5242 97.4193C100.235 95.8629 101.788 94.9996 103.152 94.5265C104.815 93.9489 105.737 92.136 105.13 90.4831C104.274 88.1522 102.557 86.2852 101.248 84.6327C100.296 83.4313 99.4574 81.9244 98.8565 80.7171C98.5799 80.1665 98.1035 79.7422 97.5246 79.531C96.9458 79.3199 96.3081 79.3377 95.7419 79.5809C76.7914 87.6863 68.4443 77.3778 68.4443 77.3778C68.4467 77.3752 68.4488 77.3724 68.4507 77.3694C74.8829 69.9871 96.653 67.08 99.2724 70.3405C99.4135 70.5109 99.5011 70.7193 99.5242 70.9393C99.7654 73.3979 101.122 76.8129 102.197 79.206C102.903 80.778 103.826 82.2359 104.901 83.5794C107.397 86.7025 108.737 90.0688 109.443 92.976C110.499 97.3008 110.156 100.614 110.156 100.614Z" fill="#363636"/>
</g>
<g opacity="0.3">
<path d="M113.94 106.448C113.494 109.569 111.086 112.584 111.086 112.584H59.6936C57.1884 110.773 54.9033 107.874 54.7002 105.077L57.7073 107.904C59.172 109.282 61.1071 110.049 63.1179 110.049H64.1818C65.5939 110.049 66.9685 109.594 68.1021 108.752C68.1021 108.752 68.8744 109.613 70.0973 108.752C70.0973 108.752 71.3668 109.41 73.0891 107.516C73.0891 107.516 75.5986 106.746 74.6845 104.099C73.7705 101.452 71.4578 93.3359 72.9876 90.0034C72.9876 90.0034 74.5174 103.145 78.1905 103.206C78.1905 103.206 81.999 104.218 88.1181 90.0098C88.0398 90.2615 85.4817 98.3632 82.236 103.674C82.236 103.674 81.5907 106.767 84.3794 106.395C84.3794 106.395 84.8555 108.902 88.5963 108.09C88.5963 108.09 93.084 111.473 95.3967 98.0966C95.3967 98.0966 96.3467 94.8995 95.805 90.799C95.805 90.799 97.306 97.9849 95.7784 105.33C95.3493 107.394 96.794 109.384 98.8895 109.62C100.586 109.811 102.984 109.973 106.372 110.037C108.742 110.082 111.058 109.237 112.793 107.621C113.195 107.249 113.578 106.858 113.94 106.448Z" fill="#363636"/>
</g>
<g opacity="0.3">
<path d="M110.155 100.615C110.155 100.615 102.97 98.8926 101.565 108.391C101.565 108.391 100.162 98.4631 110.204 98.8566C110.223 99.9611 110.155 100.615 110.155 100.615Z" fill="#363636"/>
</g>
<g opacity="0.3">
<path d="M82.6353 103.006C82.6353 103.006 83.2755 104.543 84.4486 104.407C84.6832 104.382 84.9147 104.333 85.1392 104.261C85.2128 104.237 85.2909 104.231 85.3674 104.242C85.444 104.253 85.517 104.281 85.5811 104.324C85.6451 104.368 85.6985 104.425 85.7372 104.492C85.7759 104.559 85.7988 104.634 85.8044 104.711C85.8552 105.312 86.0613 106.01 86.7256 106.141C87.6329 106.32 88.6363 105.785 89.2736 105.268C89.5617 105.034 89.9976 105.16 90.0975 105.518L90.1026 105.537C90.1162 105.585 90.1433 105.628 90.1807 105.662C90.2181 105.695 90.2643 105.717 90.3138 105.726C90.3634 105.734 90.4142 105.728 90.4604 105.708C90.5066 105.689 90.5463 105.656 90.5748 105.615C91.6421 104.069 94.4921 99.2956 95.8048 90.8013C95.8048 90.8013 96.922 100.559 91.3535 107.966C91.3535 107.966 90.0243 109.198 88.5961 108.093C88.5961 108.093 85.6521 109.032 84.3792 106.399C84.3804 106.399 81.3657 106.257 82.6353 103.006Z" fill="#363636"/>
</g>
<g opacity="0.3">
<path d="M65.8481 106.549C65.8481 106.549 68.074 107.994 68.6411 106.829C68.7621 106.581 69.0918 106.514 69.3156 106.676C69.7011 106.954 70.2466 107.177 70.7967 106.839C71.3088 106.523 71.4738 106.006 71.5115 105.569C71.5445 105.182 71.7679 104.822 72.1318 104.686C72.5338 104.535 72.9147 104.16 72.6219 103.234C72.0891 101.551 70.7108 92.93 72.9896 90.0059C72.9896 90.0059 71.6393 92.9507 73.227 98.8349C73.227 98.8349 76.7173 106.827 73.0912 107.519C73.0912 107.519 72.208 109.797 69.7257 108.709C69.724 108.709 67.5146 110.273 65.8481 106.549Z" fill="#363636"/>
</g>
<path d="M111.086 113.432H59.6947C59.5169 113.431 59.3437 113.375 59.1996 113.271C56.8721 111.589 54.2485 108.642 53.8816 105.415C53.6857 103.699 54.182 102.106 55.317 100.807C57.2966 98.5397 59.8513 98.7521 61.8457 99.6048C60.5339 95.4154 60.96 90.4753 63.1216 85.1476C65.0588 80.3725 67.6673 76.9989 67.7764 76.8576L67.8052 76.8229C70.4691 73.7579 76.0148 71.0783 83.0259 69.4724C89.1111 68.0759 95.1785 67.7729 98.123 68.7107C99.858 69.2646 100.301 70.1829 100.366 70.8557C100.594 73.19 101.907 76.4958 102.968 78.8584C103.613 80.2946 104.485 81.7046 105.56 83.0478C111.042 89.9032 111.143 97.7708 111.041 100.057C112.965 100.906 114.176 102.187 114.644 103.871C115.787 107.981 111.912 112.902 111.747 113.11C111.668 113.209 111.567 113.29 111.453 113.346C111.339 113.402 111.213 113.431 111.086 113.432ZM59.9715 111.739H110.662C111.435 110.665 113.786 107.089 113.014 104.325C112.647 103.013 111.618 102.058 109.863 101.409C109.686 101.344 109.537 101.223 109.437 101.063C109.337 100.903 109.294 100.715 109.313 100.528C109.322 100.44 110.148 91.5011 104.237 84.1091C103.074 82.6534 102.127 81.1211 101.423 79.5545C100.31 77.0768 98.9308 73.5878 98.6803 71.0237C98.6638 70.8545 98.3726 70.5705 97.6059 70.3259C92.3585 68.6514 74.6585 71.5498 69.0967 77.9151C68.6888 78.4504 59.104 91.234 64.3636 101.289C64.4551 101.464 64.4829 101.665 64.4422 101.858C64.4015 102.05 64.2948 102.223 64.1405 102.345C63.9862 102.468 63.7941 102.533 63.5971 102.529C63.4001 102.525 63.2107 102.452 63.0615 102.324C62.9032 102.188 59.1222 99.02 56.5869 101.921C55.7622 102.865 55.416 103.977 55.5586 105.222C55.8066 107.367 57.5276 109.901 59.9715 111.739Z" fill="#363636"/>
<path d="M64.4139 101.401C64.6979 102.191 65.0199 102.999 65.3622 103.778C65.6972 104.552 66.0726 105.309 66.487 106.044C66.5911 106.223 66.6935 106.403 66.8057 106.568L66.9703 106.822L67.1434 107.057C67.2564 107.222 67.3795 107.347 67.4971 107.484C67.523 107.516 67.5529 107.545 67.586 107.571L67.6732 107.646L67.7578 107.725C67.7887 107.751 67.8315 107.776 67.8678 107.802C68.1641 108.013 68.4789 108.17 68.7311 108.223C68.8303 108.246 68.9332 108.25 69.0337 108.233C69.0656 108.227 69.0966 108.216 69.1255 108.201C69.1353 108.197 69.1446 108.191 69.1534 108.185C69.1568 108.182 69.1606 108.18 69.1581 108.181C69.1556 108.182 69.1606 108.181 69.1543 108.186C69.143 108.197 69.1325 108.209 69.123 108.222L70.2469 108.048C70.2325 108.038 70.241 108.044 70.2495 108.048C70.2574 108.053 70.2658 108.057 70.2744 108.061C70.2947 108.072 70.3157 108.082 70.3371 108.09C70.3794 108.111 70.4289 108.126 70.4759 108.143C70.5687 108.171 70.6643 108.189 70.7611 108.196C70.9439 108.209 71.127 108.177 71.2947 108.103C71.4847 108.006 71.6565 107.877 71.8025 107.722C71.8833 107.634 71.9587 107.53 72.0391 107.435L72.254 107.1L73.185 106.697C73.16 106.691 73.185 106.697 73.1892 106.697L73.2244 106.7C73.2489 106.7 73.276 106.703 73.3018 106.702C73.3522 106.702 73.4025 106.697 73.452 106.687C73.5276 106.674 73.5997 106.645 73.6636 106.603C73.7216 106.563 73.7694 106.51 73.8033 106.448C73.8567 106.354 73.8969 106.254 73.9226 106.149C73.9844 105.895 73.9958 105.571 73.9776 105.233C73.9554 104.879 73.9067 104.526 73.832 104.179C73.7995 104.001 73.7504 103.819 73.7123 103.638L73.5684 103.088C73.466 102.699 73.3568 102.311 73.2603 101.92C73.072 101.137 72.896 100.352 72.7466 99.562C72.4559 97.9801 72.2206 96.3856 72.1542 94.7708C72.136 94.368 72.1393 93.9613 72.1406 93.558C72.1622 93.1518 72.1724 92.7476 72.2253 92.3422C72.2434 92.1408 72.276 91.9385 72.3099 91.7375C72.326 91.6368 72.3435 91.5365 72.3624 91.4366L72.4368 91.1404C72.4631 91.0414 72.4825 90.9424 72.5147 90.8442L72.6201 90.5548C72.6768 90.3609 72.7982 90.1845 72.8858 90.0093C72.7284 90.7964 72.7885 91.575 72.8554 92.3503C72.9222 93.1255 73.0466 93.897 73.1816 94.6659C73.4436 96.2033 73.7694 97.7334 74.1723 99.2433C74.3623 100.001 74.5798 100.752 74.807 101.498C74.9145 101.873 75.0377 102.243 75.1515 102.615C75.2721 103.002 75.3995 103.408 75.49 103.822C75.5908 104.248 75.6597 104.681 75.6961 105.117C75.7419 105.601 75.7114 106.089 75.606 106.564C75.5383 106.845 75.4284 107.113 75.2801 107.361C75.1108 107.637 74.8819 107.872 74.6102 108.048C74.3385 108.225 74.0309 108.338 73.7097 108.38C73.5633 108.402 73.4154 108.41 73.2675 108.405C73.1947 108.405 73.1224 108.397 73.0487 108.388L72.9362 108.373C72.8939 108.366 72.8681 108.362 72.7944 108.345L73.7254 107.943L73.4169 108.424C73.2929 108.579 73.1749 108.736 73.0361 108.885C72.75 109.181 72.4115 109.456 71.9938 109.647C71.569 109.837 71.1038 109.919 70.6396 109.886C70.4138 109.869 70.1906 109.827 69.9744 109.759C69.8675 109.725 69.7624 109.686 69.6596 109.641C69.6079 109.62 69.555 109.593 69.503 109.567C69.4776 109.555 69.4497 109.54 69.4209 109.525C69.3921 109.51 69.3671 109.495 69.3189 109.464L70.4424 109.29C70.415 109.323 70.3858 109.355 70.3548 109.385C70.3299 109.411 70.3125 109.428 70.2909 109.446C70.2516 109.481 70.2105 109.514 70.1678 109.545C70.089 109.604 70.0057 109.656 69.9185 109.702C69.7534 109.788 69.5771 109.852 69.3947 109.89C69.0649 109.957 68.7248 109.955 68.396 109.884C67.7904 109.752 67.3177 109.481 66.903 109.193C66.8505 109.155 66.7989 109.124 66.7456 109.081L66.5844 108.942C66.4828 108.849 66.3592 108.755 66.2801 108.659C66.1108 108.468 65.9306 108.275 65.7956 108.079L65.5793 107.785L65.3868 107.489C65.2539 107.292 65.1401 107.092 65.0241 106.892C64.5785 106.104 64.1751 105.292 63.8155 104.461C63.4542 103.638 63.1279 102.821 62.8198 101.964L64.4139 101.401Z" fill="#363636"/>
<path d="M69.4376 108.89C69.308 108.661 69.194 108.423 69.0966 108.178C68.9992 107.934 68.9116 107.684 68.8367 107.429C68.7574 107.172 68.6991 106.908 68.6624 106.641C68.629 106.373 68.6201 106.077 68.7089 105.807C68.8596 106.042 69.0246 106.23 69.1812 106.43C69.3378 106.63 69.488 106.827 69.642 107.025L70.0961 107.621C70.2421 107.821 70.3923 108.025 70.5193 108.226L69.4376 108.89Z" fill="#363636"/>
<path d="M72.4122 107.785C72.2535 107.256 72.1088 106.724 71.981 106.183C71.9145 105.914 71.851 105.644 71.7969 105.37C71.7392 105.095 71.6968 104.817 71.6699 104.537C72.0165 104.982 72.3368 105.43 72.6466 105.886C72.9627 106.337 73.2682 106.794 73.5649 107.252L72.4122 107.785Z" fill="#363636"/>
<path d="M110.009 101.448C109.987 101.444 109.919 101.434 109.868 101.429C109.817 101.424 109.755 101.417 109.699 101.413C109.583 101.405 109.464 101.398 109.345 101.394C109.105 101.386 108.865 101.391 108.625 101.409C108.145 101.446 107.668 101.529 107.204 101.66C106.266 101.925 105.399 102.397 104.669 103.042C104.299 103.379 103.96 103.749 103.657 104.147C103.513 104.356 103.357 104.559 103.23 104.782C103.163 104.892 103.09 104.998 103.026 105.111L102.841 105.452C102.342 106.368 101.952 107.363 101.567 108.39C101.543 107.279 101.715 106.173 102.074 105.121C102.442 104.03 103.025 103.023 103.79 102.162C104.594 101.278 105.601 100.603 106.723 100.194C107.285 99.9886 107.868 99.8494 108.462 99.7797C108.759 99.7438 109.059 99.7239 109.358 99.72C109.509 99.7179 109.66 99.72 109.813 99.7301C109.889 99.7344 109.967 99.7407 110.045 99.7483C110.123 99.756 110.193 99.7632 110.305 99.7809L110.009 101.448Z" fill="#363636"/>
<path d="M108.661 100.954C108.628 100.896 108.563 100.79 108.508 100.707C108.452 100.623 108.391 100.528 108.329 100.44C108.206 100.263 108.075 100.088 107.94 99.9172C107.668 99.5765 107.374 99.255 107.058 98.9549C106.434 98.3538 105.706 97.8709 104.909 97.5297C104.109 97.1979 103.232 97.0409 102.321 97.0371C101.41 97.0333 100.473 97.1916 99.5234 97.418C100.335 96.8373 101.257 96.4271 102.232 96.2123C103.253 95.9937 104.312 96.0219 105.321 96.2944C106.342 96.5691 107.296 97.0854 108.11 97.7472C108.516 98.0787 108.892 98.4455 109.234 98.8432C109.403 99.0421 109.567 99.2461 109.719 99.4619C109.795 99.5694 109.87 99.6777 109.941 99.7915C110.011 99.9054 110.076 100.009 110.158 100.162L108.661 100.954Z" fill="#363636"/>
<path d="M88.1215 90.0063C87.9705 91.1988 87.6814 92.3456 87.345 93.4764C87.0086 94.6071 86.5901 95.7052 86.1864 96.8122C85.7827 97.9192 85.3438 99.0127 84.8843 100.105C84.7725 100.38 84.6532 100.651 84.5296 100.921C84.4061 101.192 84.2906 101.464 84.1598 101.733L83.7734 102.54L83.3587 103.344L83.401 103.26C83.3803 103.313 83.3456 103.412 83.3202 103.492C83.2948 103.572 83.2686 103.661 83.2457 103.75C83.2013 103.919 83.1668 104.091 83.1425 104.264C83.0917 104.598 83.0964 104.921 83.1624 105.131C83.2364 105.342 83.2957 105.412 83.4688 105.503C83.6533 105.582 83.9571 105.637 84.2973 105.619L85.1771 106.287C85.1729 106.268 85.1771 106.285 85.1805 106.295C85.1839 106.308 85.1881 106.32 85.1932 106.332C85.2028 106.361 85.2142 106.389 85.2275 106.417C85.2534 106.476 85.2829 106.535 85.3159 106.591C85.3501 106.647 85.388 106.701 85.4293 106.752L85.4902 106.829L85.5601 106.896C85.7554 107.081 85.9938 107.214 86.2536 107.283C86.5236 107.373 86.8546 107.371 87.1821 107.367C87.3514 107.345 87.5236 107.329 87.6958 107.304L88.2214 107.187L88.8985 107.292C88.8887 107.286 88.9082 107.296 88.9209 107.303C88.9336 107.309 88.9501 107.317 88.967 107.325C88.9988 107.341 89.0335 107.356 89.0703 107.37C89.1423 107.4 89.2161 107.425 89.2912 107.446C89.4371 107.486 89.5869 107.51 89.738 107.518C90.0221 107.535 90.3051 107.47 90.5531 107.33C90.807 107.188 91.0482 106.964 91.2687 106.692C91.3228 106.623 91.3698 106.542 91.4227 106.469C91.4743 106.389 91.5272 106.329 91.5793 106.234C91.6821 106.053 91.7909 105.876 91.8903 105.69C92.2961 104.951 92.6613 104.172 93.0071 103.387L93.261 102.795L93.4971 102.195C93.6638 101.798 93.8005 101.391 93.9516 100.986C94.5186 99.3597 94.9778 97.6916 95.2634 95.9921C95.296 95.7805 95.3379 95.5689 95.3692 95.3544L95.4538 94.7146C95.5258 94.2876 95.5537 93.8589 95.6104 93.4277L95.6498 93.104L95.6697 92.7794L95.7259 92.126C95.7632 91.6885 95.7611 91.25 95.8106 90.7977C95.9587 91.2224 96.0821 91.6553 96.1804 92.0943C96.2524 92.5352 96.3518 92.9829 96.3742 93.4311C96.4094 93.8801 96.4458 94.3329 96.428 94.7827L96.4123 95.4598C96.4022 95.6849 96.3772 95.9083 96.3573 96.1326C96.1881 97.9265 95.8468 99.7 95.3383 101.429C95.0844 102.291 94.8077 103.15 94.4734 103.988C94.139 104.826 93.7963 105.662 93.3693 106.475C93.2656 106.68 93.1497 106.882 93.0401 107.086C92.9889 107.185 92.9063 107.301 92.8399 107.407C92.7735 107.513 92.7028 107.624 92.622 107.728C92.2953 108.145 91.8954 108.544 91.3804 108.835C90.8552 109.13 90.2566 109.268 89.6555 109.232C89.3667 109.217 89.0809 109.167 88.8045 109.081C88.6686 109.04 88.535 108.99 88.4046 108.934C88.3395 108.906 88.2739 108.876 88.2083 108.841C88.1753 108.825 88.1431 108.809 88.1076 108.788C88.072 108.767 88.0428 108.752 87.9865 108.717L88.6636 108.821L87.9937 108.969C87.7635 109.005 87.5282 109.03 87.293 109.054C86.8088 109.064 86.3099 109.065 85.7962 108.907C85.2654 108.761 84.7795 108.485 84.3828 108.103L84.2355 107.955L84.1039 107.794C84.0177 107.686 83.9386 107.573 83.867 107.455C83.7965 107.336 83.7333 107.212 83.6778 107.085C83.6484 107.02 83.6222 106.953 83.5995 106.885C83.5872 106.852 83.575 106.817 83.564 106.778C83.553 106.738 83.542 106.707 83.5263 106.637L84.4061 107.306C83.9152 107.338 83.363 107.328 82.7735 107.083C82.4624 106.948 82.1853 106.745 81.9623 106.49C81.7467 106.238 81.5879 105.942 81.4968 105.622C81.3275 105.026 81.358 104.492 81.4312 104.003C81.4705 103.763 81.5236 103.526 81.5903 103.292C81.6237 103.178 81.6584 103.064 81.6978 102.95C81.7371 102.837 81.7735 102.734 81.8323 102.594V102.591C81.844 102.564 81.857 102.537 81.8713 102.512C82.4303 101.525 82.9529 100.492 83.462 99.4511C83.9787 98.4131 84.4594 97.3518 84.9549 96.296C85.4505 95.2401 85.905 94.1636 86.4157 93.1095C86.9265 92.0553 87.469 91.0143 88.1215 90.0063Z" fill="#363636"/>
<path d="M83.7837 106.172C83.9483 105.942 84.1138 105.714 84.286 105.489C84.4582 105.264 84.633 105.041 84.8073 104.818C84.9817 104.594 85.1649 104.375 85.3469 104.156C85.5289 103.936 85.7197 103.721 85.922 103.517L85.6842 104.338L85.4374 105.151C85.3528 105.419 85.2707 105.691 85.181 105.958C85.0913 106.224 85.0033 106.492 84.911 106.756L83.7837 106.172Z" fill="#363636"/>
<path d="M87.8896 107.688L89.0656 106.122C89.2582 105.858 89.4613 105.599 89.6513 105.332C89.8513 105.071 90.037 104.798 90.2074 104.516C90.1849 104.855 90.0961 105.182 90.0114 105.506C89.9166 105.827 89.8202 106.148 89.7089 106.462C89.5976 106.776 89.4884 107.092 89.3665 107.4C89.2446 107.709 89.1219 108.016 88.989 108.325L87.8896 107.688Z" fill="#363636"/>
<path d="M82.807 82.1115C74.8873 82.1115 67.811 80.5999 62.3445 77.7393C60.9653 77.0222 59.6527 76.1838 58.4221 75.2341H58.3527V75.1787C57.7877 74.7376 57.2452 74.2684 56.7273 73.7729C55.1865 72.3011 53.9344 70.6486 53.0034 68.8641C51.6552 66.2679 50.9722 63.3684 50.9722 60.2458C50.9722 57.4156 51.5464 54.582 52.6784 51.8246C52.9429 49.5306 53.168 47.6776 53.3868 45.998C54.1777 39.9703 55.2987 32.9148 57.6185 26.2883C57.8841 25.5198 58.3253 24.8239 58.907 24.2558C59.4888 23.6877 60.195 23.2632 60.9696 23.0159C61.7339 22.7659 62.546 22.6977 63.3414 22.8167C64.1367 22.9357 64.8932 23.2386 65.5509 23.7015C69.3789 26.3789 73.3495 30.3199 75.6647 33.7421L75.7129 33.8136C78.1993 33.2765 80.736 33.007 83.2797 33.0096C85.592 33.0088 87.8989 33.2356 90.1668 33.6866C92.4892 30.2788 96.4365 26.3658 100.243 23.7044C100.901 23.2414 101.658 22.9384 102.454 22.8195C103.25 22.7007 104.062 22.7692 104.827 23.0197C105.601 23.2668 106.307 23.6912 106.888 24.2592C107.47 24.8272 107.91 25.523 108.175 26.2913C109.022 28.7144 109.744 31.2712 110.38 34.1073C111.694 39.947 112.463 46.1588 113.137 52.0227L113.151 52.1386C113.414 52.8458 113.64 53.5495 113.824 54.2321C114.363 56.1922 114.637 58.2158 114.639 60.2487C114.639 65.6895 112.629 70.3118 108.665 73.9874C108.241 74.3818 107.784 74.7729 107.265 75.1825V75.2371H107.194C105.323 76.6945 103.11 77.9521 100.614 78.9754C96.5301 80.6469 91.8041 81.6638 86.5673 81.9977C85.3587 82.0722 84.0943 82.1115 82.807 82.1115ZM58.5626 75.075C59.7806 76.014 61.0796 76.8429 62.4444 77.5518C67.8809 80.3964 74.9229 81.8999 82.8087 81.8999C84.0913 81.8999 85.3515 81.8606 86.5542 81.7831C91.7702 81.4505 96.4738 80.4391 100.536 78.7786C103.009 77.763 105.202 76.5193 107.056 75.0771L107.098 75.0454C107.629 74.6281 108.096 74.2308 108.524 73.8304C112.445 70.1958 114.432 65.6256 114.432 60.2466C114.43 58.2326 114.159 56.2278 113.625 54.2858C113.426 53.5516 113.179 52.7937 112.89 52.0324L112.754 51.6736L112.902 51.7916C112.235 46.0077 111.471 39.8954 110.177 34.1513C109.543 31.3232 108.823 28.7744 107.98 26.3594C107.726 25.6217 107.302 24.9537 106.744 24.4084C106.186 23.8631 105.508 23.4557 104.764 23.2186C104.031 22.9784 103.251 22.9127 102.488 23.0268C101.724 23.1409 100.998 23.4316 100.367 23.8758C96.558 26.5418 92.6085 30.4595 90.3048 33.8627L90.2654 33.9211L90.1964 33.9071C87.9201 33.4498 85.604 33.2201 83.2822 33.2211C80.6098 33.2194 77.9457 33.5193 75.3405 34.1153L74.8856 34.2148L75.4358 33.778C73.1244 30.3927 69.2071 26.516 65.429 23.8733C64.7981 23.4293 64.0722 23.1387 63.3093 23.0245C62.5463 22.9104 61.7672 22.9758 61.0339 23.2157C60.2905 23.4531 59.6127 23.8606 59.0544 24.4059C58.4961 24.9512 58.0727 25.6192 57.8178 26.3569C55.506 32.9647 54.3872 40.0067 53.5979 46.0238C53.3792 47.7068 53.1536 49.5615 52.8883 51.8636L52.8811 51.8915C51.7559 54.6277 51.185 57.4384 51.185 60.2458C51.185 63.3349 51.8621 66.2011 53.1934 68.7663C54.1121 70.5327 55.3516 72.1665 56.875 73.6222C57.4005 74.1242 57.9513 74.5989 58.5254 75.0445L58.5626 75.075Z" fill="#363636"/>
<path d="M102.047 77.9953C102.047 77.9953 101.487 78.3275 100.575 78.8742C96.4852 80.5483 91.7114 81.5605 86.5614 81.8885C85.3305 81.9681 84.0797 82.0071 82.8091 82.0057C75.035 82.0057 67.9134 80.5327 62.3957 77.647C61.0838 73.643 64.5962 70.7916 70.2929 68.972C72.4443 68.2839 74.1286 66.5663 74.6694 64.373C76.9041 55.3171 87.6646 55.3171 89.8998 64.373C90.4406 66.5663 92.1244 68.2839 94.2758 68.972C100.135 70.8437 103.687 73.8059 102.047 77.9953Z" fill="white"/>
<g opacity="0.6">
<path d="M100.089 23.7872C99.7503 24.0251 99.4118 24.2714 99.0732 24.524C101.765 23.2316 105.089 24.5435 106.118 27.4837C108.873 35.3585 110.03 44.0961 111.074 53.191L111.026 53.1541C112.033 55.7888 112.575 58.5678 112.575 61.406C112.575 67.0291 110.375 71.5994 106.634 75.0673C106.179 75.4921 105.701 75.8989 105.2 76.2877H105.198C104.995 76.4468 104.788 76.6038 104.577 76.7561C105.396 76.2591 106.185 75.7148 106.941 75.1261C106.942 75.1264 106.942 75.1265 106.943 75.1265C106.943 75.1265 106.943 75.1264 106.944 75.1261C107.443 74.7359 107.922 74.3305 108.378 73.9052C112.118 70.4378 114.319 65.8675 114.319 60.2444C114.319 57.4066 113.776 54.6276 112.77 51.9925L112.817 52.0298C111.773 42.9345 110.617 34.1973 107.861 26.3225C106.736 23.1119 102.874 21.8411 100.089 23.7872Z" fill="white"/>
</g>
<g opacity="0.6">
<path d="M58.6909 24.4042C59.4783 24.0816 60.3343 23.9624 61.1799 24.0576C62.0254 24.1528 62.8335 24.4593 63.5295 24.9488C67.0689 27.4231 70.5072 30.7924 72.7919 33.8109C73.0496 34.1468 73.3945 34.4056 73.789 34.5593C74.1835 34.7129 74.6126 34.7556 75.0296 34.6826H75.0436H75.0461C75.1769 34.4406 75.3207 34.1812 75.46 33.9307C75.3402 33.9569 75.2179 33.9831 75.0982 34.0115L75.3618 33.7999C73.1389 30.5178 69.2681 26.5814 65.2729 23.7872C63.1393 22.2964 60.3726 22.6933 58.6909 24.4042Z" fill="white"/>
</g>
<path d="M98.1899 36.583C99.5322 34.1248 101.269 31.794 102.52 30.241C103.185 29.4124 104.513 29.7154 104.755 30.7509C105.365 33.3597 106.223 37.7624 106.348 42.3348V42.3369" fill="#FF5253"/>
<path d="M106.346 42.337H106.24C106.12 37.8827 105.31 33.5909 104.65 30.7751C104.601 30.5609 104.493 30.365 104.337 30.2101C104.181 30.0552 103.984 29.9477 103.77 29.9C103.557 29.8488 103.333 29.86 103.126 29.9322C102.919 30.0043 102.737 30.1345 102.602 30.3071C101.374 31.8305 99.6293 34.1656 98.2815 36.6339L98.0957 36.5324C99.4499 34.0505 101.205 31.7052 102.437 30.1746C102.599 29.973 102.815 29.821 103.059 29.7359C103.303 29.6509 103.566 29.6362 103.819 29.6935C104.071 29.7509 104.302 29.878 104.485 30.0603C104.669 30.2427 104.797 30.4729 104.856 30.7248C105.517 33.5503 106.331 37.8573 106.452 42.3298L106.346 42.337Z" fill="#363636"/>
<g opacity="0.6">
<path d="M97.0259 37.8702L102.767 41.7063C103.267 42.0403 103.835 42.2592 104.43 42.347C105.024 42.4349 105.631 42.3894 106.206 42.2141L98.1879 36.5859C99.5302 34.1251 101.267 31.7943 102.518 30.2412C102.522 30.235 102.528 30.2297 102.534 30.2256C102.05 29.6395 101.091 29.5764 100.557 30.2412C99.5197 31.5298 97.8756 33.6876 96.579 35.789C96.3691 36.1262 96.2984 36.5317 96.3818 36.9199C96.4652 37.3082 96.6961 37.6489 97.0259 37.8702Z" fill="white"/>
</g>
<g opacity="0.3">
<path d="M102.037 30.8491C102.082 30.9391 102.116 31.0341 102.139 31.1322C102.647 33.2963 103.324 36.6986 103.61 40.406L106.348 42.3369V42.3348C106.223 37.7645 105.365 33.3597 104.755 30.7509C104.513 29.7154 103.185 29.4124 102.52 30.241C102.366 30.4328 102.204 30.6355 102.037 30.8491Z" fill="#363636"/>
</g>
<path d="M59.0127 42.3369V42.3348C59.1367 37.7645 59.9957 33.3597 60.6059 30.7509C60.8476 29.7154 62.1751 29.4124 62.8399 30.241C64.0908 31.7949 65.8279 34.1248 67.1706 36.583" fill="#FF5253"/>
<path d="M59.1188 42.3376L58.9072 42.3347C59.0287 37.86 59.8424 33.5526 60.503 30.7266C60.5619 30.4747 60.6904 30.2443 60.8739 30.0619C61.0574 29.8795 61.2885 29.7523 61.5408 29.695C61.7932 29.6376 62.0565 29.6523 62.3009 29.7375C62.5452 29.8226 62.7607 29.9748 62.9227 30.1765C64.155 31.7075 65.9086 34.0532 67.2636 36.5342L67.0783 36.6358C65.7305 34.1683 63.9849 31.8336 62.7577 30.309C62.6226 30.1361 62.4405 30.0058 62.2334 29.9336C62.0262 29.8614 61.8026 29.8504 61.5893 29.9019C61.3748 29.9496 61.1783 30.0571 61.0225 30.212C60.8667 30.3669 60.758 30.5628 60.7091 30.777C60.0506 33.5911 59.2398 37.8837 59.1188 42.3376Z" fill="#363636"/>
<g opacity="0.6">
<path d="M59.0119 42.611L59.0297 41.7879C59.204 37.414 60.0191 33.2555 60.6052 30.7512C60.6456 30.5707 60.7246 30.4011 60.8366 30.2539C60.1765 30.0559 59.4025 30.4198 59.2239 31.1849C58.6768 33.5238 57.9303 37.304 57.692 41.3559C57.6806 41.5293 57.7074 41.7031 57.7706 41.8651C57.8338 42.027 57.9319 42.173 58.0578 42.2928C58.1838 42.4125 58.3345 42.5031 58.4994 42.5581C58.6643 42.6131 58.8393 42.6312 59.0119 42.611Z" fill="white"/>
</g>
<g opacity="0.3">
<path d="M60.3735 31.7728C60.4521 31.8348 60.5231 31.9059 60.5851 31.9844C61.8166 33.5142 63.5211 35.7985 64.8528 38.2156L67.1671 36.583C65.8248 34.1248 64.0877 31.7949 62.8364 30.241C62.1716 29.4124 60.8445 29.7154 60.6025 30.7509C60.5305 31.067 60.4552 31.4068 60.3735 31.7728Z" fill="#363636"/>
</g>
<path d="M78.6943 62.5728C78.6943 63.4492 79.9055 64.1568 81.395 64.153C82.8846 64.1492 84.0906 63.4361 84.0885 62.5597C84.0864 61.6833 82.8787 61.611 81.3891 61.6144C79.8995 61.6177 78.6897 61.6969 78.6943 62.5728Z" fill="#363636"/>
<path d="M75.6058 63.4682C75.8076 64.097 76.0802 64.6814 76.5 65.0517C76.9041 65.4326 77.4182 65.5853 77.9426 65.557C78.4669 65.5286 79.0005 65.3213 79.4406 65.0043C79.6617 64.8465 79.8609 64.6601 80.033 64.45L80.1557 64.2904L80.2899 64.0924C80.4087 63.9222 80.5667 63.7831 80.7507 63.6869C80.9346 63.5908 81.1389 63.5403 81.3465 63.5398C81.5541 63.5393 81.7587 63.5888 81.943 63.6841C82.1274 63.7794 82.2861 63.9177 82.4057 64.0873L82.5407 64.2845L82.6639 64.444C82.8372 64.6528 83.0372 64.8377 83.2589 64.9942C83.7028 65.3086 84.2347 65.5189 84.7607 65.5401C85.2867 65.5612 85.7992 65.4131 86.1995 65.0272C86.6176 64.6544 86.8867 64.0687 87.0848 63.4386L87.0869 63.4322C87.1023 63.3826 87.1348 63.3401 87.1786 63.3121C87.2224 63.2841 87.2746 63.2724 87.3262 63.2792C87.3777 63.286 87.4251 63.3108 87.4602 63.3491C87.4952 63.3875 87.5156 63.437 87.5177 63.4889C87.5477 64.2007 87.4098 64.9772 86.9388 65.6522C86.6927 65.9924 86.3749 66.2744 86.0078 66.4782C85.6336 66.6796 85.221 66.7993 84.7971 66.8295C83.9563 66.8976 83.1374 66.6467 82.4468 66.2176C82.1002 65.9989 81.7867 65.7317 81.5158 65.4241C81.4492 65.3454 81.3844 65.2651 81.3212 65.1833L81.2319 65.0564L81.1896 64.9925C81.1756 64.9717 81.1536 64.9404 81.1663 64.9612C81.1861 64.9923 81.2134 65.0179 81.2457 65.0356C81.2781 65.0534 81.3143 65.0627 81.3512 65.0627C81.3881 65.0627 81.4244 65.0534 81.4567 65.0356C81.489 65.0179 81.5163 64.9923 81.5361 64.9612C81.5484 64.9404 81.5268 64.9722 81.5129 64.9929L81.4705 65.0568L81.3817 65.1838L81.1891 65.4258C80.9184 65.735 80.6049 66.0039 80.2581 66.2243C79.5696 66.6564 78.7521 66.9128 77.9104 66.8477C77.4861 66.8197 77.0727 66.7022 76.6972 66.5028C76.3291 66.3005 76.01 66.0198 75.7624 65.6806C75.2888 65.0073 75.1467 64.2316 75.1742 63.5194C75.176 63.4675 75.1961 63.4179 75.2309 63.3794C75.2657 63.3409 75.313 63.3159 75.3644 63.3088C75.4159 63.3017 75.4682 63.313 75.5121 63.3407C75.556 63.3684 75.5887 63.4107 75.6045 63.4602L75.6058 63.4682Z" fill="#363636"/>
<path d="M95.4278 64.6585C98.2491 64.6516 100.529 61.7448 100.52 58.166C100.512 54.5872 98.2175 51.6916 95.3961 51.6985C92.5748 51.7053 90.2947 54.6121 90.3034 58.191C90.3122 61.7698 92.6064 64.6654 95.4278 64.6585Z" fill="white"/>
<path d="M95.418 65.3209C92.2417 65.3209 89.6514 62.1264 89.6421 58.193C89.6328 54.2596 92.2133 51.0452 95.3947 51.0376H95.4061C98.5829 51.0376 101.173 54.2317 101.182 58.1651C101.187 60.044 100.609 61.8183 99.5562 63.1585C98.4665 64.5478 97.0011 65.3167 95.4294 65.3167L95.418 65.3209ZM95.4066 52.3609H95.3981C92.9462 52.3668 90.9578 54.982 90.9654 58.1901C90.973 61.3981 92.9699 63.9977 95.418 63.9977H95.426C96.5838 63.9947 97.6807 63.4052 98.5152 62.3443C99.3857 61.2344 99.863 59.7516 99.8592 58.1685C99.8512 54.9638 97.8546 52.3604 95.4066 52.3604V52.3609Z" fill="#363636"/>
<path d="M94.589 64.0955C96.8494 64.09 98.6761 61.7171 98.669 58.7954C98.6618 55.8738 96.8236 53.5099 94.5631 53.5154C92.3027 53.5209 90.476 55.8938 90.4831 58.8154C90.4903 61.7371 92.3285 64.101 94.589 64.0955Z" fill="#363636"/>
<path d="M95.5332 58.409C96.0627 58.4077 96.4905 57.7782 96.4886 57.003C96.4867 56.2278 96.0559 55.6004 95.5263 55.6017C94.9967 55.603 94.5689 56.2324 94.5708 57.0077C94.5727 57.7829 95.0036 58.4103 95.5332 58.409Z" fill="white"/>
<path d="M72.7607 58.1919C72.7695 54.6131 70.4894 51.7063 67.668 51.6994C64.8467 51.6925 62.5524 54.5881 62.5437 58.167C62.5349 61.7458 64.815 64.6526 67.6364 64.6595C70.4577 64.6663 72.752 61.7707 72.7607 58.1919Z" fill="white"/>
<path d="M67.6464 65.3207H67.635C66.0637 65.3169 64.5979 64.5497 63.5086 63.1625C62.4553 61.8194 61.8777 60.0454 61.8824 58.1666C61.8921 54.2336 64.4823 51.0391 67.6582 51.0391H67.6701C70.8515 51.0467 73.432 54.2552 73.4227 58.1945C73.4134 62.1338 70.8244 65.3207 67.6464 65.3207ZM63.2056 58.1691C63.2018 59.7518 63.6791 61.2346 64.5496 62.345C65.3837 63.408 66.4805 63.9953 67.6388 63.9983H67.6468C70.0953 63.9983 72.0901 61.3954 72.0999 58.1907C72.1096 54.986 70.119 52.3674 67.6671 52.3615H67.6587C65.2106 52.3615 63.2153 54.9644 63.206 58.1691H63.2056Z" fill="#363636"/>
<path d="M72.5811 58.8159C72.5882 55.8943 70.7615 53.5213 68.5011 53.5158C66.2406 53.5103 64.4024 55.8743 64.3953 58.7959C64.3881 61.7175 66.2148 64.0904 68.4752 64.0959C70.7357 64.1015 72.5739 61.7375 72.5811 58.8159Z" fill="#363636"/>
<path d="M68.493 57.0087C68.4949 56.2335 68.0671 55.604 67.5375 55.6027C67.008 55.6014 66.5771 56.2288 66.5752 57.0041C66.5733 57.7793 67.0011 58.4088 67.5307 58.4101C68.0603 58.4114 68.4911 57.784 68.493 57.0087Z" fill="white"/>
<path d="M84.7989 66.2046C84.7989 67.122 84.5284 67.855 84.0926 68.4081C82.785 70.0711 79.9929 70.0711 78.6853 68.4081C78.2494 67.8579 77.979 67.122 77.979 66.2046C79.3018 65.9389 80.4613 65.4526 81.3898 64.6592C82.3512 65.5212 83.4472 66.1195 84.7989 66.2046Z" fill="#363636"/>
<path d="M84.0933 68.4077C82.7857 70.0708 79.9936 70.0708 78.686 68.4077C79.9915 66.7404 82.7878 66.7404 84.0933 68.4077Z" fill="#F42C4F"/>
<path d="M81.3898 70.4173C80.3077 70.4173 79.2942 70.0416 78.5355 69.3594C77.9341 68.8182 77.2173 67.8322 77.2173 66.2051H78.7428C78.7428 68.0607 80.0724 68.8914 81.3898 68.8914C82.7071 68.8914 84.0367 68.0607 84.0367 66.2051H85.5601C85.5622 68.9705 83.4633 70.4173 81.3898 70.4173Z" fill="#363636"/>
<path d="M106.348 43.1001C106.161 43.0999 105.98 43.0306 105.84 42.9054C103.279 40.6135 100.585 38.7135 97.8343 37.2573C97.7449 37.2101 97.6659 37.1457 97.6017 37.0677C97.5375 36.9896 97.4895 36.8996 97.4604 36.8029C97.4314 36.7061 97.4218 36.6045 97.4324 36.504C97.443 36.4036 97.4734 36.3062 97.522 36.2176C98.8994 33.6921 100.678 31.3134 101.928 29.7629C102.168 29.4654 102.486 29.2411 102.847 29.1158C103.207 28.9904 103.596 28.969 103.968 29.054C104.341 29.139 104.682 29.3269 104.952 29.5964C105.223 29.8659 105.413 30.206 105.499 30.578C106.167 33.4327 106.989 37.7867 107.112 42.3147C107.112 42.3218 107.112 42.3307 107.112 42.3375C107.112 42.5395 107.032 42.7333 106.889 42.8761C106.746 43.019 106.552 43.0992 106.35 43.0992L106.348 43.1001ZM99.2346 36.2828C101.375 37.4744 103.476 38.9225 105.503 40.6033C105.255 36.8549 104.577 33.3413 104.012 30.9245C103.99 30.8312 103.943 30.7457 103.875 30.678C103.807 30.6103 103.721 30.563 103.628 30.5415C103.535 30.52 103.437 30.5252 103.346 30.5565C103.256 30.5878 103.176 30.6439 103.115 30.7185C102.017 32.0836 100.497 34.106 99.2346 36.2828Z" fill="#363636"/>
<path d="M82.591 82.8777C73.4264 82.8777 65.5063 80.9197 59.6872 77.2149C53.3435 73.1757 49.9902 67.3071 49.9902 60.2456C49.9902 57.3478 50.5696 54.4516 51.7125 51.6345C52.7485 42.637 53.9215 33.9133 56.6776 26.036C56.9809 25.1605 57.4828 24.3671 58.144 23.7181C58.8052 23.069 59.6078 22.5819 60.4887 22.295C61.3697 22.008 62.3052 21.929 63.2218 22.0641C64.1384 22.1993 65.0113 22.5448 65.772 23.0738C69.5383 25.7067 73.4463 29.5504 75.8435 32.9616C80.3795 32.048 85.1063 32.0052 89.6093 32.8376C92.0108 29.4577 95.8697 25.6754 99.5907 23.0742C100.351 22.5452 101.224 22.1995 102.141 22.0644C103.058 21.9292 103.993 22.0082 104.874 22.2951C105.755 22.5821 106.558 23.0692 107.219 23.7183C107.88 24.3674 108.382 25.1608 108.685 26.0364C111.471 34.0001 112.64 42.83 113.685 51.9324C113.685 51.9379 113.685 51.9434 113.685 51.9489C114.684 54.6547 115.191 57.4451 115.191 60.2465C115.191 67.3097 111.838 73.1782 105.494 77.2157C99.6753 80.9197 91.7561 82.8777 82.591 82.8777ZM53.2046 52.5985C52.2284 55.1083 51.7337 57.6766 51.7337 60.244C51.7337 66.6813 54.808 72.0411 60.6237 75.7439C66.0826 79.2198 73.8847 81.1343 82.591 81.1343C91.2974 81.1343 99.0985 79.2198 104.558 75.7439C110.373 72.0411 113.444 66.6813 113.444 60.244C113.444 57.5818 112.949 54.9272 111.974 52.3539C111.921 52.2168 111.905 52.0688 111.925 51.9235C110.898 42.9946 109.742 34.3445 107.036 26.6098C106.82 25.9838 106.461 25.4169 105.987 24.954C105.514 24.4912 104.939 24.1453 104.308 23.9438C103.687 23.7403 103.026 23.6847 102.38 23.7816C101.733 23.8784 101.118 24.1249 100.584 24.5015C96.8481 27.1129 92.9752 30.9545 90.7176 34.2887C90.6212 34.4305 90.4851 34.5408 90.3264 34.6059C90.1677 34.671 89.9934 34.688 89.8251 34.6547C85.1702 33.7157 80.2403 33.7661 75.5481 34.8037C75.4317 34.8295 75.3111 34.8311 75.1939 34.8084C75.0768 34.7857 74.9656 34.7392 74.8671 34.6718C74.7687 34.6043 74.6852 34.5174 74.6217 34.4163C74.5583 34.3153 74.5162 34.2022 74.4983 34.0843C72.2224 30.7988 68.4312 27.0596 64.7712 24.5011C64.2371 24.1249 63.6226 23.8786 62.9765 23.7818C62.3305 23.6849 61.6707 23.7403 61.0498 23.9434C60.4189 24.1447 59.8438 24.4905 59.3701 24.9534C58.8965 25.4162 58.5375 25.9833 58.3217 26.6094C55.6176 34.3378 54.4615 42.9802 53.4349 51.9003C53.4329 51.9319 53.4292 51.9634 53.4239 51.9946C53.4188 52.0395 53.4137 52.0835 53.4086 52.1279C53.3897 52.3018 53.3186 52.4658 53.2046 52.5985Z" fill="#363636"/>
<path d="M59.0121 43.1001C58.9049 43.1002 58.7988 43.0777 58.7009 43.034C58.6029 42.9903 58.5153 42.9264 58.4438 42.8465C58.3722 42.7666 58.3184 42.6725 58.2857 42.5704C58.253 42.4682 58.2423 42.3603 58.2542 42.2537C58.2965 41.8852 59.2495 33.2004 59.8623 30.5767C59.9491 30.2046 60.1387 29.8645 60.4096 29.595C60.6804 29.3256 61.0215 29.1377 61.3941 29.0528C61.7666 28.968 62.1554 28.9896 62.5163 29.1151C62.8771 29.2407 63.1953 29.4652 63.4347 29.763C64.6831 31.3139 66.4617 33.6934 67.8399 36.2172C67.9345 36.3899 67.9586 36.5926 67.907 36.7827C67.8554 36.9727 67.7321 37.1354 67.5632 37.2366C65.0203 38.7647 62.3789 40.6279 59.4882 42.9333C59.3529 43.0412 59.1851 43.0999 59.0121 43.1001ZM61.8529 30.5272C61.8126 30.5274 61.7724 30.5319 61.7331 30.5407C61.6386 30.5606 61.5519 30.6075 61.4834 30.6756C61.4149 30.7437 61.3676 30.8302 61.3472 30.9246C60.9202 32.7501 60.2952 37.862 59.9748 40.6152C62.136 38.9543 64.1698 37.5371 66.1434 36.317C64.8777 34.1288 63.3505 32.0929 62.2443 30.721C62.1987 30.6604 62.1395 30.6114 62.0716 30.5777C62.0036 30.5441 61.9287 30.5268 61.8529 30.5272Z" fill="#363636"/>
<g opacity="0.2">
<path d="M85.7381 36.3066C89.6143 36.9244 92.7526 38.0805 94.9916 39.8926C95.7855 40.5349 95.4731 41.8188 94.4762 42.0402C89.9956 43.035 86.5332 41.9648 84.4542 38.0911C83.9764 37.2008 84.7402 36.1475 85.7381 36.3066Z" fill="white"/>
</g>
<g opacity="0.2">
<path d="M99.8753 46.1399C100.6 45.594 100.579 44.3435 99.8279 43.3469C99.0772 42.3503 97.8813 41.9843 97.1564 42.5298C96.4315 43.0752 96.9025 43.9889 97.6515 44.9842C98.4005 45.9795 99.1504 46.6832 99.8753 46.1399Z" fill="white"/>
</g>
<g opacity="0.3">
<path d="M68.2394 65.5527C67.4974 65.8122 66.7171 65.9454 65.931 65.9466C64.9928 65.9468 64.0604 65.7985 63.1685 65.5074L58.0977 52.4512C59.071 51.1521 60.5025 50.2888 62.1178 49.7891L68.2394 65.5527Z" fill="white"/>
</g>
<g opacity="0.3">
<path d="M101.11 65.1286C99.9358 65.6659 98.6604 65.9449 97.3696 65.9466C97.026 65.9465 96.683 65.9205 96.3434 65.8687L90.8125 51.6256C91.8861 50.5499 93.3477 49.8191 95.0294 49.4746L101.11 65.1286Z" fill="white"/>
</g>
<g opacity="0.3">
<path d="M105.583 60.8551C104.998 62 104.182 63.012 103.188 63.8279L97.5254 49.2437C98.8131 49.2568 100.11 49.4404 101.301 49.8251L105.583 60.8551Z" fill="white"/>
</g>
<g opacity="0.3">
<path d="M73.368 60.8551C72.782 61.9999 71.9665 63.0119 70.9724 63.8279L65.3091 49.2437C66.5964 49.2568 67.8934 49.4404 69.0846 49.8251L73.368 60.8551Z" fill="white"/>
</g>
<path d="M113.492 50.0899C112.366 50.2013 111.229 50.0396 110.178 49.6185C109.816 49.4746 109.485 49.2643 109.171 49.0354C101.269 43.2146 91.6381 45.5493 84.8403 50.3265C82.714 48.4363 80.5875 48.4363 78.4609 50.3265C71.6631 45.5493 62.0325 43.2146 54.1306 49.0354C53.8166 49.2643 53.4849 49.4746 53.1235 49.6185C52.0735 50.0396 50.9375 50.2013 49.8117 50.0899C49.7452 50.0827 49.6779 50.0895 49.6142 50.11C49.5504 50.1305 49.4917 50.1641 49.4419 50.2088C49.392 50.2535 49.3521 50.3081 49.3248 50.3692C49.2975 50.4303 49.2833 50.4965 49.2832 50.5634V52.2185C49.2842 52.3295 49.3239 52.4367 49.3954 52.5217C49.467 52.6066 49.5658 52.664 49.6751 52.684C51.4101 53.0174 52.3453 54.3995 52.6652 56.5869C57.1584 76.8991 78.7301 71.2286 78.8058 54.2387C78.8077 53.8509 78.9444 53.4758 79.1924 53.1776C79.4405 52.8795 79.7845 52.6768 80.1655 52.6044C81.1764 52.4076 82.1705 52.3928 83.1438 52.5744C83.5244 52.6466 83.8679 52.8494 84.115 53.1477C84.3622 53.446 84.4976 53.8212 84.4979 54.2086C84.5491 71.2202 106.143 76.9102 110.639 56.5869C110.957 54.3995 111.892 53.0174 113.627 52.684C113.736 52.6643 113.835 52.607 113.907 52.522C113.978 52.437 114.018 52.3296 114.018 52.2185V50.5634C114.019 50.4966 114.005 50.4305 113.978 50.3694C113.951 50.3083 113.911 50.2536 113.861 50.2089C113.811 50.1642 113.753 50.1305 113.689 50.11C113.626 50.0895 113.558 50.0826 113.492 50.0899ZM65.9312 65.9466C61.2069 65.9466 57.1453 62.1804 56.7907 57.5809C56.3252 51.5194 61.2082 49.2415 65.9312 49.2415C70.6543 49.2415 74.4124 51.8736 74.4124 56.4883C74.4124 61.103 70.6576 65.9466 65.9312 65.9466ZM106.513 57.5809C106.158 62.1804 102.096 65.9466 97.3729 65.9466C92.6499 65.9466 88.8917 61.0992 88.8917 56.4883C88.8917 51.8774 92.6486 49.2415 97.3729 49.2415C102.097 49.2415 106.978 51.5194 106.512 57.5809H106.513Z" fill="#F42C4F"/>
<path d="M65.5121 69.6653C62.8885 69.6653 60.3532 68.7457 58.2636 67.0171C55.5413 64.7645 53.5698 61.1659 52.5618 56.61C52.2304 54.3482 51.2804 53.1006 49.655 52.7883C49.5217 52.7634 49.4012 52.693 49.3141 52.5891C49.2269 52.4853 49.1786 52.3543 49.1772 52.2187V50.5637C49.1773 50.482 49.1946 50.4011 49.2279 50.3265C49.2613 50.2518 49.31 50.185 49.3709 50.1304C49.4317 50.0758 49.5034 50.0346 49.5812 50.0095C49.6591 49.9845 49.7413 49.976 49.8226 49.9848C50.9314 50.0928 52.05 49.9332 53.0844 49.5193C53.3874 49.3991 53.7001 49.2176 54.0683 48.9493C62.1818 42.9733 71.9685 45.6638 78.4536 50.1918C80.5754 48.3433 82.7276 48.3438 84.8477 50.1918C91.3316 45.6638 101.12 42.9729 109.233 48.9497C109.601 49.2176 109.914 49.3991 110.217 49.5193C111.252 49.9331 112.371 50.0927 113.48 49.9848C113.562 49.9761 113.644 49.9845 113.721 50.0097C113.799 50.0348 113.871 50.076 113.931 50.1306C113.992 50.1853 114.04 50.2521 114.074 50.3267C114.107 50.4013 114.124 50.4821 114.124 50.5637V52.2187C114.122 52.3544 114.074 52.4853 113.987 52.5892C113.9 52.6931 113.779 52.7635 113.646 52.7883C112.02 53.1006 111.071 54.3482 110.743 56.6024C109.733 61.168 107.76 64.7696 105.036 67.0192C102.627 69.0111 99.6236 69.9272 96.5806 69.6006C93.3767 69.2552 90.3777 67.615 88.1366 64.982C85.6991 62.118 84.4042 58.3933 84.392 54.2102C84.3908 53.8474 84.2636 53.4964 84.0319 53.2172C83.8003 52.938 83.4788 52.7481 83.1224 52.68C82.1847 52.5027 81.1953 52.5107 80.1839 52.7101C79.8275 52.7789 79.5059 52.969 79.2737 53.2479C79.0414 53.5269 78.9128 53.8777 78.9098 54.2407C78.8916 58.4182 77.5928 62.1366 75.1549 64.9947C72.9121 67.6231 69.9152 69.2595 66.7135 69.6018C66.3144 69.6442 65.9134 69.6653 65.5121 69.6653ZM49.7604 50.1934C49.6685 50.1933 49.5798 50.2272 49.5116 50.2887C49.4727 50.3231 49.4416 50.3655 49.4204 50.4129C49.3993 50.4604 49.3885 50.5118 49.3888 50.5637V52.2187C49.3901 52.3052 49.4213 52.3886 49.4772 52.4545C49.5331 52.5205 49.6101 52.5651 49.6952 52.5806C51.3955 52.9072 52.4297 54.25 52.77 56.5715C55.0492 66.8757 61.4564 69.9522 66.6924 69.3902C72.6286 68.7555 78.6592 63.3465 78.6994 54.2407C78.7028 53.8287 78.8486 53.4306 79.1121 53.1139C79.3756 52.7971 79.7405 52.5814 80.145 52.5031C81.1835 52.3008 82.1991 52.2915 83.1631 52.4727C83.567 52.551 83.9312 52.7671 84.1936 53.0841C84.456 53.401 84.6003 53.7992 84.6018 54.2106C84.6289 63.3308 90.6591 68.7508 96.6017 69.3911C101.839 69.9547 108.251 66.8829 110.533 56.566C110.872 54.2525 111.903 52.9094 113.604 52.5827C113.689 52.5673 113.767 52.5227 113.822 52.4567C113.878 52.3907 113.909 52.3073 113.91 52.2209V50.5658C113.911 50.5139 113.9 50.4624 113.879 50.4149C113.858 50.3673 113.827 50.3248 113.788 50.29C113.75 50.2552 113.704 50.229 113.655 50.2131C113.605 50.1972 113.553 50.1919 113.501 50.1977C112.358 50.309 111.204 50.1449 110.137 49.7191C109.817 49.5921 109.489 49.4025 109.106 49.1232C101.055 43.1916 91.3223 45.9021 84.901 50.4156L84.8325 50.4639L84.7699 50.4084C82.6709 48.5426 80.63 48.5431 78.5314 50.4084L78.4688 50.4639L78.3986 50.4139C71.9752 45.8999 62.2431 43.1904 54.1931 49.1211C53.8097 49.4008 53.4822 49.59 53.1618 49.7174C52.0955 50.1434 50.9426 50.3075 49.7997 50.196C49.7867 50.1943 49.7735 50.1935 49.7604 50.1934ZM97.3698 66.0527C92.4551 66.0527 88.7828 61.0034 88.7828 56.489C88.7828 52.0914 92.2338 49.1368 97.3698 49.1368C100.518 49.1368 103.248 50.1346 104.86 51.8747C106.206 53.3283 106.798 55.2508 106.618 57.5875C106.256 62.256 102.108 66.0527 97.3698 66.0527ZM97.3698 49.3479C92.3603 49.3479 88.9944 52.2175 88.9944 56.4886C88.9944 60.9035 92.5761 65.8407 97.3698 65.8407C102 65.8407 106.054 62.1316 106.407 57.5723C106.581 55.2948 106.009 53.4252 104.704 52.0169C103.133 50.3208 100.459 49.3479 97.3698 49.3479ZM65.9315 66.0527C61.192 66.0527 57.0449 62.256 56.6839 57.5892C56.5041 55.2504 57.0952 53.3279 58.4418 51.8764C60.0532 50.1363 62.7831 49.1385 65.9319 49.1385C71.068 49.1385 74.5189 52.0931 74.5189 56.4907C74.5185 61.0034 70.8458 66.0527 65.9315 66.0527ZM65.9315 49.3479C62.8423 49.3479 60.1683 50.3212 58.5971 52.0177C57.2924 53.4265 56.7199 55.2956 56.8946 57.5731C57.2476 62.132 61.3016 65.8411 65.9315 65.8411C70.7248 65.8411 74.3069 60.9035 74.3069 56.489C74.3069 52.2175 70.941 49.3479 65.9315 49.3479Z" fill="#363636"/>
<g opacity="0.55">
<path d="M113.492 50.0899C112.366 50.2013 111.229 50.0396 110.178 49.6185C109.816 49.4746 109.485 49.2643 109.171 49.0354C101.269 43.2146 91.6381 45.5493 84.8403 50.3265C82.714 48.4363 80.5875 48.4363 78.4609 50.3265C71.6631 45.5493 62.0325 43.2146 54.1306 49.0354C53.8167 49.2643 53.4849 49.4746 53.1235 49.6185C52.0735 50.0396 50.9375 50.2013 49.8117 50.0899C49.7452 50.0827 49.6779 50.0895 49.6142 50.11C49.5504 50.1305 49.4917 50.1641 49.4419 50.2088C49.392 50.2535 49.3521 50.3081 49.3248 50.3692C49.2975 50.4303 49.2833 50.4965 49.2832 50.5634V52.1715C49.2832 52.1046 49.2973 52.0384 49.3247 51.9773C49.352 51.9161 49.3919 51.8615 49.4418 51.8168C49.4916 51.7722 49.5504 51.7386 49.6141 51.7182C49.6779 51.6977 49.7452 51.691 49.8117 51.6984C50.9375 51.8096 52.0736 51.6477 53.1235 51.2266C53.4849 51.0827 53.8167 50.8728 54.1306 50.6434C62.0325 44.8227 71.6631 47.1573 78.4631 51.9349C80.5896 50.0448 82.7161 50.0448 84.8424 51.9349C91.6402 47.1573 101.271 44.8227 109.175 50.6434C109.489 50.8728 109.821 51.0827 110.182 51.2266C111.233 51.6477 112.37 51.8095 113.496 51.6984C113.563 51.6911 113.63 51.6979 113.693 51.7184C113.757 51.7389 113.815 51.7726 113.865 51.8172C113.915 51.8619 113.954 51.9165 113.981 51.9776C114.009 52.0386 114.022 52.1047 114.022 52.1715V50.5634C114.023 50.4962 114.009 50.4298 113.981 50.3684C113.954 50.307 113.914 50.2521 113.864 50.2073C113.814 50.1626 113.755 50.129 113.69 50.1087C113.626 50.0885 113.559 50.0821 113.492 50.0899ZM106.51 57.6186C106.135 62.2011 102.082 65.9466 97.3691 65.9466C92.9233 65.9466 89.3331 61.6518 88.9277 57.3025C88.901 57.5667 88.8877 57.832 88.8879 58.0976C88.8879 62.7102 92.6448 67.5559 97.3691 67.5559C102.093 67.5559 106.155 63.7897 106.51 59.1902C106.553 58.6672 106.553 58.1415 106.508 57.6186H106.51ZM74.3739 57.3025C73.969 61.6518 70.3805 65.9466 65.9325 65.9466C61.2213 65.9466 57.1694 62.2011 56.7945 57.6186C56.7495 58.1414 56.7483 58.6671 56.7907 59.1902C57.1466 63.7897 61.2082 67.5559 65.9312 67.5559C70.6543 67.5559 74.4124 62.7085 74.4124 58.0976C74.4129 57.832 74.3996 57.5666 74.3727 57.3025H74.3739Z" fill="white"/>
</g>
<path d="M65.5111 70.2859C62.7444 70.2859 60.0704 69.3168 57.8678 67.4951C55.038 65.1541 52.9941 61.4365 51.956 56.744C51.9522 56.727 51.9493 56.7097 51.9467 56.6923C51.5659 54.0814 50.3899 53.5609 49.5389 53.3984C49.2639 53.346 49.0156 53.1997 48.8365 52.9845C48.6574 52.7693 48.5587 52.4985 48.5571 52.2186V50.5635C48.5571 50.3947 48.5925 50.2277 48.6612 50.0735C48.7299 49.9193 48.8304 49.7813 48.9559 49.6684C49.0815 49.5556 49.2295 49.4704 49.3901 49.4185C49.5508 49.3666 49.7206 49.3492 49.8884 49.3672C50.8974 49.4652 51.9152 49.3201 52.8566 48.944C53.1105 48.8438 53.3783 48.6863 53.7029 48.4494C61.9163 42.398 71.7609 44.9303 78.4204 49.4176C80.5435 47.7719 82.7592 47.7719 84.8822 49.4176C91.5417 44.9319 101.386 42.3988 109.602 48.4515C109.925 48.6863 110.195 48.8438 110.449 48.9445C111.39 49.3201 112.407 49.4652 113.415 49.3676C113.583 49.3496 113.753 49.3671 113.914 49.419C114.074 49.4709 114.222 49.556 114.348 49.6688C114.474 49.7817 114.574 49.9197 114.643 50.0739C114.711 50.2282 114.747 50.3951 114.747 50.5639V52.219C114.745 52.4988 114.647 52.7694 114.468 52.9846C114.289 53.1997 114.041 53.346 113.766 53.3984C112.914 53.5621 111.739 54.0818 111.357 56.6927C111.355 56.7101 111.352 56.7274 111.348 56.7444C110.309 61.4386 108.264 65.1575 105.432 67.4985C102.893 69.5978 99.725 70.5631 96.514 70.2173C93.151 69.8551 90.0081 68.1383 87.6637 65.3834C85.1302 62.4064 83.7841 58.5433 83.7706 54.2117C83.7702 53.9935 83.6941 53.7822 83.5551 53.614C83.4162 53.4458 83.2231 53.3311 83.0089 53.2896C82.149 53.1271 81.2387 53.1364 80.3039 53.318C80.0885 53.3594 79.8941 53.4741 79.7536 53.6425C79.6131 53.811 79.5351 54.0228 79.5329 54.2422C79.5135 58.5682 78.1635 62.425 75.6292 65.3966C73.2835 68.1472 70.141 69.8585 66.7806 70.2182C66.3589 70.2632 65.9352 70.2858 65.5111 70.2859ZM81.7609 51.7201C82.2709 51.7193 82.7798 51.7663 83.281 51.8605C83.8272 51.9652 84.3201 52.2565 84.6752 52.6846C85.0304 53.1126 85.2256 53.6508 85.2275 54.207C85.2534 62.9616 91.0043 68.1603 96.6718 68.7714C101.64 69.3088 107.726 66.3508 109.924 56.457C110.298 53.9493 111.431 52.456 113.295 52.0137V50.8369C112.142 50.906 110.987 50.7206 109.914 50.294C109.543 50.1467 109.173 49.9334 108.746 49.6228C100.957 43.8846 91.5083 46.5337 85.2601 50.9215C85.1262 51.0156 84.9643 51.0617 84.8009 51.0524C84.6374 51.043 84.482 50.9787 84.3596 50.8699C82.5125 49.2288 80.7927 49.2288 78.946 50.8699C78.8236 50.9788 78.668 51.0432 78.5045 51.0525C78.341 51.0619 78.1791 51.0157 78.045 50.9215C71.7986 46.5315 62.35 43.8846 54.5636 49.6207C54.1345 49.9334 53.7638 50.1467 53.394 50.294C52.3201 50.7202 51.1658 50.9055 50.0124 50.8369V52.012C51.8744 52.453 53.0093 53.9468 53.3826 56.4554C55.5792 66.3453 61.6607 69.3029 66.6279 68.7697C72.2899 68.1641 78.0417 62.9764 78.0802 54.2329C78.0847 53.6775 78.2809 53.1408 78.6356 52.7135C78.9903 52.2863 79.4818 51.9947 80.0268 51.8881C80.5976 51.7769 81.1777 51.7206 81.7592 51.7201H81.7609ZM97.373 66.6737C92.1024 66.6737 88.1644 61.2964 88.1644 56.4888C88.1644 51.7192 91.865 48.5149 97.373 48.5149C100.694 48.5149 103.589 49.5856 105.318 51.4522C106.787 53.0378 107.434 55.1185 107.24 57.6368C106.853 62.6201 102.426 66.6737 97.3713 66.6737H97.373ZM97.373 49.969C93.5133 49.969 89.6188 51.985 89.6188 56.4888C89.6188 60.6101 92.9348 65.2197 97.373 65.2197C101.686 65.2197 105.462 61.7679 105.79 57.5247C105.951 55.4275 105.434 53.7162 104.251 52.4403C102.795 50.8699 100.288 49.969 97.3713 49.969H97.373ZM65.9313 66.6737C60.8761 66.6737 56.4497 62.6201 56.0642 57.6373C55.8708 55.1185 56.517 53.0378 57.9858 51.4522C59.7145 49.5856 62.6103 48.5149 65.9313 48.5149C71.4389 48.5149 75.1395 51.7192 75.1395 56.4888C75.1404 61.2964 71.2049 66.6737 65.9326 66.6737H65.9313ZM65.9313 49.969C63.014 49.969 60.5071 50.8699 59.0526 52.4403C57.8703 53.7166 57.3528 55.4275 57.514 57.5251C57.8424 61.7679 61.6188 65.2197 65.9313 65.2197C70.3691 65.2197 73.6851 60.6101 73.6851 56.4888C73.6864 51.985 69.7919 49.969 65.9326 49.969H65.9313Z" fill="#363636"/>
<path d="M54.3057 112.586H117.68C118.116 112.586 118.534 112.759 118.842 113.067C119.15 113.375 119.323 113.793 119.323 114.229V127.015C119.323 127.451 119.15 127.869 118.842 128.177C118.534 128.485 118.116 128.658 117.68 128.658H54.3057C53.3438 128.658 52.4212 128.276 51.741 127.596C51.0608 126.916 50.6787 125.993 50.6787 125.031V116.213C50.6787 115.251 51.0608 114.328 51.741 113.648C52.4212 112.968 53.3438 112.586 54.3057 112.586Z" fill="#6E76F1"/>
<g opacity="0.7">
<path d="M117.68 112.586H54.3062C53.3443 112.586 52.4217 112.968 51.7415 113.648C51.0613 114.328 50.6792 115.251 50.6792 116.213V125.031C50.6786 125.624 50.824 126.207 51.1024 126.73C51.1024 126.728 51.1024 126.726 51.1024 126.724V117.906C51.1024 116.944 51.4845 116.021 52.1647 115.341C52.8449 114.661 53.7674 114.279 54.7294 114.279H59.4444C59.8405 114.992 62.1696 115.54 64.9837 115.54C67.7978 115.54 70.1269 114.992 70.523 114.279H118.104C118.334 114.279 118.562 114.327 118.772 114.421C118.982 114.515 119.17 114.652 119.324 114.824V114.231C119.324 114.015 119.282 113.801 119.199 113.602C119.117 113.402 118.996 113.221 118.843 113.068C118.691 112.915 118.509 112.794 118.31 112.711C118.11 112.628 117.896 112.586 117.68 112.586Z" fill="white"/>
</g>
<path d="M57.8871 112.562H55.3032V128.658H57.8871V112.562Z" fill="white"/>
<path d="M62.9613 112.562H60.3774V128.658H62.9613V112.562Z" fill="white"/>
<g opacity="0.3">
<path d="M117.68 124.426H54.3062C53.3443 124.426 52.4217 124.044 51.7415 123.364C51.0613 122.684 50.6792 121.761 50.6792 120.799V125.031C50.6792 125.993 51.0613 126.916 51.7415 127.596C52.4217 128.276 53.3443 128.658 54.3062 128.658H117.68C117.896 128.658 118.11 128.616 118.309 128.533C118.509 128.451 118.69 128.329 118.843 128.177C118.995 128.024 119.116 127.843 119.199 127.644C119.281 127.444 119.324 127.231 119.324 127.015V122.783C119.324 122.999 119.281 123.213 119.199 123.412C119.116 123.611 118.995 123.793 118.843 123.945C118.69 124.098 118.509 124.219 118.309 124.301C118.11 124.384 117.896 124.426 117.68 124.426Z" fill="#363636"/>
</g>
<path d="M117.679 129.505H54.3053C53.1193 129.503 51.9821 129.032 51.1434 128.193C50.3047 127.354 49.8329 126.217 49.8315 125.031V116.213C49.8329 115.027 50.3047 113.89 51.1434 113.051C51.9821 112.213 53.1193 111.741 54.3053 111.74H117.679C118.339 111.741 118.972 112.003 119.439 112.47C119.905 112.936 120.168 113.569 120.169 114.229V127.015C120.168 127.675 119.905 128.308 119.439 128.774C118.972 129.241 118.339 129.504 117.679 129.505ZM54.3053 113.432C53.568 113.433 52.8612 113.726 52.3398 114.248C51.8184 114.769 51.5251 115.476 51.5242 116.213V125.031C51.5251 125.768 51.8184 126.475 52.3398 126.997C52.8612 127.518 53.568 127.811 54.3053 127.812H117.679C117.89 127.811 118.093 127.727 118.242 127.578C118.392 127.429 118.476 127.226 118.476 127.015V114.228C118.476 114.017 118.392 113.814 118.242 113.665C118.093 113.516 117.89 113.432 117.679 113.431L54.3053 113.432Z" fill="#363636"/>
<path d="M84.3085 116.259H119.322V125.101H84.3085C83.9408 125.101 83.5768 125.028 83.2371 124.887C82.8974 124.747 82.5888 124.541 82.3288 124.281C82.0688 124.021 81.8626 123.712 81.7219 123.372C81.5812 123.033 81.5088 122.669 81.5088 122.301V119.059C81.5088 118.691 81.5812 118.327 81.7219 117.988C81.8626 117.648 82.0688 117.339 82.3288 117.079C82.5888 116.819 82.8974 116.613 83.2371 116.472C83.5768 116.332 83.9408 116.259 84.3085 116.259Z" fill="white"/>
<g opacity="0.3">
<path d="M86.847 123.194C86.4794 123.194 86.1153 123.122 85.7756 122.981C85.436 122.841 85.1273 122.634 84.8674 122.374C84.6074 122.114 84.4011 121.806 84.2605 121.466C84.1198 121.126 84.0473 120.762 84.0473 120.395V117.153C84.0478 116.851 84.0974 116.55 84.1942 116.264C83.4725 116.293 82.7899 116.6 82.2893 117.12C81.7887 117.641 81.5088 118.335 81.5083 119.057V122.299C81.5083 122.667 81.5807 123.031 81.7214 123.37C81.8621 123.71 82.0683 124.019 82.3283 124.279C82.5883 124.539 82.8969 124.745 83.2366 124.886C83.5763 125.026 83.9403 125.099 84.308 125.099H119.322V123.194H86.847Z" fill="#363636"/>
</g>
<path d="M119.322 125.875H84.3088C83.3608 125.874 82.452 125.497 81.7817 124.826C81.1114 124.156 80.7344 123.247 80.7334 122.299V119.058C80.7344 118.11 81.1114 117.201 81.7817 116.531C82.452 115.86 83.3608 115.483 84.3088 115.482H119.322C119.528 115.482 119.726 115.564 119.871 115.709C120.017 115.855 120.098 116.052 120.099 116.258V125.099C120.099 125.305 120.017 125.502 119.871 125.648C119.726 125.793 119.528 125.875 119.322 125.875ZM84.3088 117.034C83.7722 117.034 83.2577 117.248 82.8783 117.627C82.499 118.007 82.2856 118.521 82.2852 119.058V122.299C82.2857 122.836 82.4991 123.35 82.8785 123.73C83.2578 124.109 83.7722 124.323 84.3088 124.323H118.547V117.034H84.3088Z" fill="#363636"/>
<g opacity="0.4">
<path d="M110.828 118.875C111.536 118.786 112.244 118.744 112.952 118.714L115.075 118.643C115.783 118.617 116.491 118.606 117.199 118.588C117.906 118.571 118.615 118.563 119.323 118.557V119.192C118.615 119.186 117.907 119.178 117.199 119.161C116.491 119.143 115.783 119.131 115.075 119.105L112.952 119.035C112.244 119.005 111.536 118.963 110.828 118.875Z" fill="#363636"/>
<path d="M81.5752 118.557C85.5729 118.531 89.5706 118.553 93.5683 118.576L99.5651 118.638C101.564 118.664 103.563 118.638 105.561 118.875C103.563 119.11 101.564 119.086 99.5651 119.111L93.5683 119.173C89.5706 119.197 85.5729 119.218 81.5752 119.192V118.557Z" fill="#363636"/>
<path d="M98.5684 120.785C100.298 120.55 102.028 120.559 103.757 120.537L108.946 120.477L114.134 120.451C115.864 120.449 117.593 120.451 119.323 120.467V121.102C117.593 121.118 115.864 121.123 114.134 121.118L108.946 121.092L103.757 121.031C102.028 121.01 100.298 121.019 98.5684 120.785Z" fill="#363636"/>
<path d="M81.5752 120.467C82.6599 120.458 83.7445 120.458 84.829 120.467L88.0823 120.502L91.3357 120.566C92.4203 120.583 93.5049 120.605 94.5894 120.784C93.5049 120.963 92.4203 120.986 91.3357 121.002L88.0823 121.066L84.829 121.101C83.7442 121.109 82.6596 121.109 81.5752 121.101V120.467Z" fill="#363636"/>
<path d="M108.945 122.694C109.81 122.567 110.675 122.512 111.539 122.479L114.134 122.413C114.998 122.387 115.863 122.385 116.728 122.374C117.16 122.368 117.593 122.366 118.025 122.368C118.458 122.368 118.89 122.368 119.322 122.376V123.011C118.89 123.019 118.458 123.018 118.025 123.019C117.593 123.02 117.16 123.019 116.728 123.013C115.863 123.003 114.998 123 114.134 122.974L111.539 122.909C110.675 122.876 109.81 122.821 108.945 122.694Z" fill="#363636"/>
<path d="M81.5752 122.377L86.9203 122.406L92.265 122.457L97.6096 122.527C99.3912 122.548 101.173 122.569 102.954 122.696C101.173 122.823 99.3912 122.842 97.6096 122.865L92.265 122.935L86.9203 122.986L81.5752 123.015V122.377Z" fill="#363636"/>
</g>
<path d="M115.696 144.73H52.3215C51.8857 144.73 51.4677 144.557 51.1596 144.249C50.8514 143.941 50.6783 143.523 50.6783 143.087V130.3C50.6783 129.864 50.8514 129.447 51.1596 129.138C51.4677 128.83 51.8857 128.657 52.3215 128.657H115.696C116.658 128.657 117.58 129.039 118.26 129.719C118.941 130.4 119.323 131.322 119.323 132.284V141.103C119.323 142.065 118.941 142.988 118.26 143.668C117.58 144.348 116.658 144.73 115.696 144.73Z" fill="#F42C4F"/>
<path d="M112.114 144.73H114.698V128.635H112.114V144.73Z" fill="#FFBC1F"/>
<path d="M107.04 144.73H109.624V128.635H107.04V144.73Z" fill="#FFBC1F"/>
<g opacity="0.3">
<path d="M52.3224 140.499H115.697C116.173 140.499 116.645 140.405 117.085 140.222C117.525 140.04 117.925 139.773 118.261 139.436C118.598 139.099 118.865 138.7 119.048 138.26C119.23 137.82 119.324 137.348 119.324 136.872V141.103C119.324 141.58 119.23 142.051 119.048 142.491C118.865 142.931 118.598 143.331 118.261 143.668C117.925 144.005 117.525 144.272 117.085 144.454C116.645 144.636 116.173 144.73 115.697 144.73H52.3224C52.1066 144.73 51.8929 144.688 51.6935 144.605C51.4941 144.523 51.3129 144.402 51.1604 144.249C51.0078 144.097 50.8867 143.915 50.8042 143.716C50.7216 143.517 50.6791 143.303 50.6792 143.087V138.857C50.6794 139.292 50.8527 139.71 51.1608 140.018C51.4689 140.326 51.8868 140.499 52.3224 140.499Z" fill="#363636"/>
</g>
<g opacity="0.7">
<path d="M52.3224 128.658H115.697C116.173 128.658 116.645 128.752 117.085 128.934C117.525 129.117 117.925 129.384 118.261 129.721C118.598 130.057 118.865 130.457 119.048 130.897C119.23 131.337 119.324 131.809 119.324 132.285V141.103C119.324 141.696 119.179 142.279 118.901 142.802C118.901 142.802 118.901 142.798 118.901 142.796V133.978C118.901 133.016 118.518 132.093 117.838 131.413C117.158 130.733 116.235 130.351 115.273 130.351H110.559C110.162 131.064 107.833 131.612 105.019 131.612C102.205 131.612 99.8759 131.064 99.4799 130.351H51.8992C51.669 130.351 51.4413 130.399 51.2311 130.493C51.0208 130.587 50.8328 130.724 50.6792 130.896V130.301C50.6791 130.086 50.7216 129.872 50.8042 129.672C50.8867 129.473 51.0078 129.292 51.1604 129.139C51.3129 128.987 51.4941 128.866 51.6935 128.783C51.8929 128.701 52.1066 128.658 52.3224 128.658Z" fill="white"/>
</g>
<path d="M115.695 145.577H52.3211C51.661 145.576 51.0283 145.313 50.5616 144.847C50.0949 144.38 49.8323 143.747 49.8315 143.087V130.302C49.8323 129.642 50.0949 129.009 50.5616 128.542C51.0283 128.075 51.661 127.813 52.3211 127.812H115.695C116.881 127.813 118.018 128.285 118.857 129.124C119.696 129.962 120.167 131.099 120.169 132.285V141.103C120.167 142.289 119.696 143.426 118.857 144.265C118.018 145.104 116.881 145.575 115.695 145.577ZM52.3211 129.505C52.1098 129.505 51.9073 129.589 51.7579 129.738C51.6085 129.888 51.5245 130.09 51.5242 130.302V143.089C51.5245 143.3 51.6085 143.502 51.7579 143.652C51.9073 143.801 52.1098 143.885 52.3211 143.885H115.695C116.433 143.884 117.139 143.591 117.661 143.07C118.182 142.549 118.475 141.842 118.476 141.105V132.285C118.475 131.548 118.182 130.841 117.661 130.32C117.139 129.799 116.433 129.506 115.695 129.505H52.3211Z" fill="#363636"/>
<path d="M85.691 141.171H50.6773V132.33H85.691C86.0587 132.33 86.4227 132.402 86.7624 132.543C87.1021 132.684 87.4107 132.89 87.6707 133.15C87.9307 133.41 88.1369 133.719 88.2776 134.058C88.4183 134.398 88.4907 134.762 88.4907 135.13V138.372C88.4907 138.739 88.4183 139.103 88.2776 139.443C88.1369 139.783 87.9307 140.091 87.6707 140.351C87.4107 140.611 87.1021 140.818 86.7624 140.958C86.4227 141.099 86.0587 141.171 85.691 141.171Z" fill="white"/>
<g opacity="0.3">
<path d="M83.1539 139.267C83.8964 139.267 84.6085 138.972 85.1336 138.447C85.6586 137.922 85.9536 137.21 85.9536 136.467V133.226C85.9531 132.923 85.9035 132.623 85.8067 132.337C86.5284 132.366 87.2109 132.673 87.7115 133.193C88.2121 133.714 88.492 134.408 88.4926 135.13V138.371C88.4926 139.114 88.1976 139.826 87.6726 140.351C87.1475 140.876 86.4354 141.171 85.6929 141.171H50.6792V139.267H83.1539Z" fill="#363636"/>
</g>
<path d="M85.6912 141.946H50.6775C50.4716 141.946 50.2742 141.864 50.1287 141.718C49.9831 141.573 49.9014 141.375 49.9014 141.169V132.329C49.9015 132.124 49.9833 131.926 50.1288 131.781C50.2744 131.635 50.4717 131.554 50.6775 131.554H85.6912C86.6392 131.555 87.5482 131.932 88.2185 132.602C88.8889 133.273 89.266 134.181 89.267 135.13V138.371C89.2655 139.319 88.8883 140.227 88.218 140.897C87.5476 141.568 86.639 141.944 85.6912 141.946ZM51.4531 140.394H85.6912C86.2278 140.393 86.7422 140.18 87.1216 139.8C87.5011 139.421 87.7145 138.906 87.7152 138.37V135.128C87.7146 134.592 87.5012 134.077 87.1218 133.698C86.7423 133.318 86.2278 133.105 85.6912 133.104H51.4531V140.394Z" fill="#363636"/>
<g opacity="0.4">
<path d="M59.1744 134.946C58.4664 135.035 57.7584 135.077 57.0505 135.107L54.9266 135.177C54.2186 135.203 53.5106 135.215 52.8031 135.232C52.0956 135.25 51.3872 135.258 50.6792 135.264V134.629C51.3872 134.634 52.0951 134.642 52.8031 134.66C53.5111 134.678 54.2186 134.689 54.9266 134.715L57.0505 134.785C57.7584 134.816 58.4685 134.857 59.1744 134.946Z" fill="#363636"/>
<path d="M88.4257 135.264C84.428 135.29 80.4303 135.268 76.4326 135.245L70.4358 135.183C68.4372 135.157 66.4381 135.183 64.4395 134.946C66.4381 134.711 68.4372 134.735 70.4358 134.709L76.4326 134.648C80.4303 134.624 84.428 134.603 88.4257 134.629V135.264Z" fill="#363636"/>
<path d="M71.4337 136.856C69.7038 137.09 67.9742 137.082 66.2447 137.103L61.0562 137.164L55.8677 137.19C54.1384 137.193 52.4088 137.187 50.6792 137.174V136.539C52.4087 136.523 54.1382 136.521 55.8677 136.523L61.0562 136.549L66.2447 136.61C67.9742 136.63 69.7038 136.622 71.4337 136.856Z" fill="#363636"/>
<path d="M88.4268 137.174C87.3424 137.183 86.2578 137.183 85.1731 137.174L81.9197 137.138L78.6664 137.075C77.5818 137.058 76.4972 137.035 75.4126 136.856C76.4972 136.677 77.5818 136.654 78.6664 136.638L81.9197 136.574L85.1731 136.539C86.2578 136.531 87.3424 136.531 88.4268 136.539V137.174Z" fill="#363636"/>
<path d="M61.0562 138.766C60.1917 138.893 59.3267 138.948 58.4622 138.981L55.8677 139.047C55.0032 139.073 54.1382 139.075 53.2732 139.086C52.841 139.092 52.4087 139.094 51.9762 139.092C51.5437 139.092 51.1117 139.092 50.6792 139.084V138.449C51.1117 138.441 51.5437 138.442 51.9762 138.441C52.4087 138.44 52.8412 138.441 53.2732 138.447C54.1382 138.457 55.0032 138.46 55.8677 138.486L58.4622 138.551C59.3267 138.585 60.1917 138.639 61.0562 138.766Z" fill="#363636"/>
<path d="M88.4264 139.083L83.0814 139.055L77.7367 139.003L72.392 138.934C70.6105 138.912 68.8285 138.891 67.0474 138.764C68.8285 138.637 70.6105 138.618 72.392 138.595L77.7367 138.526L83.0814 138.475L88.4264 138.445V139.083Z" fill="#363636"/>
</g>
<path d="M40.1432 144.413C41.0741 144.155 42.0051 144.018 42.9361 143.914C43.8671 143.809 44.7981 143.772 45.729 143.742C47.591 143.673 49.453 143.709 51.3149 143.747C53.1769 143.784 55.0388 143.777 56.9008 143.778H118.364H121.157C122.088 143.778 123.019 143.736 123.95 143.715C124.882 143.694 125.814 143.725 126.743 143.806C127.674 143.901 128.605 144.057 129.536 144.414C129.601 144.438 129.656 144.481 129.696 144.538C129.735 144.595 129.756 144.662 129.756 144.731C129.756 144.8 129.735 144.868 129.696 144.925C129.656 144.981 129.601 145.025 129.536 145.049C128.605 145.405 127.674 145.562 126.743 145.656C125.814 145.738 124.882 145.768 123.95 145.747C123.019 145.727 122.088 145.684 121.157 145.684H118.364H56.9046C55.0426 145.684 53.1807 145.676 51.3187 145.716C49.4568 145.756 47.5948 145.789 45.7328 145.721C44.8019 145.69 43.8709 145.655 42.9399 145.549C42.0089 145.443 41.078 145.307 40.147 145.05C40.0775 145.03 40.0162 144.989 39.9726 144.932C39.9289 144.874 39.9053 144.804 39.9053 144.732C39.9053 144.66 39.9289 144.59 39.9726 144.533C40.0162 144.475 40.0775 144.434 40.147 144.415L40.1432 144.413Z" fill="#363636"/>
</g>
<defs>
<filter id="filter0_ddd_23840_65436" x="0" y="0" width="170" height="171" filterUnits="userSpaceOnUse" color-interpolation-filters="sRGB">
<feFlood flood-opacity="0" result="BackgroundImageFix"/>
<feColorMatrix in="SourceAlpha" type="matrix" values="0 0 0 0 0 0 0 0 0 0 0 0 0 0 0 0 0 0 127 0" result="hardAlpha"/>
<feOffset dy="1"/>
<feGaussianBlur stdDeviation="2.5"/>
<feColorMatrix type="matrix" values="0 0 0 0 0.748125 0 0 0 0 0.767812 0 0 0 0 0.7875 0 0 0 0.24 0"/>
<feBlend mode="normal" in2="BackgroundImageFix" result="effect1_dropShadow_23840_65436"/>
<feColorMatrix in="SourceAlpha" type="matrix" values="0 0 0 0 0 0 0 0 0 0 0 0 0 0 0 0 0 0 127 0" result="hardAlpha"/>
<feOffset dy="3"/>
<feGaussianBlur stdDeviation="2"/>
<feColorMatrix type="matrix" values="0 0 0 0 0.748125 0 0 0 0 0.767812 0 0 0 0 0.7875 0 0 0 0.18 0"/>
<feBlend mode="normal" in2="effect1_dropShadow_23840_65436" result="effect2_dropShadow_23840_65436"/>
<feColorMatrix in="SourceAlpha" type="matrix" values="0 0 0 0 0 0 0 0 0 0 0 0 0 0 0 0 0 0 127 0" result="hardAlpha"/>
<feOffset dy="2"/>
<feGaussianBlur stdDeviation="2"/>
<feColorMatrix type="matrix" values="0 0 0 0 0.748125 0 0 0 0 0.767812 0 0 0 0 0.7875 0 0 0 0.2 0"/>
<feBlend mode="normal" in2="effect2_dropShadow_23840_65436" result="effect3_dropShadow_23840_65436"/>
<feBlend mode="normal" in="SourceGraphic" in2="effect3_dropShadow_23840_65436" result="shape"/>
</filter>
</defs>
</svg>
